<?xml version="1.0" encoding="utf-8"?>
<!-- Generator: Adobe Illustrator 25.2.3, SVG Export Plug-In . SVG Version: 6.00 Build 0)  -->
<svg version="1.1" id="Layer_1" xmlns="http://www.w3.org/2000/svg" xmlns:xlink="http://www.w3.org/1999/xlink" x="0px" y="0px"
	 viewBox="0 0 30 30" style="enable-background:new 0 0 30 30;" xml:space="preserve">
<style type="text/css">
	.st0{fill:url(#_123456_1_);}
	.st1{fill:url(#_123456_-_Outline_1_);}
</style>
<linearGradient id="_123456_1_" gradientUnits="userSpaceOnUse" x1="12.3973" y1="8.6221" x2="12.3973" y2="7.6221" gradientTransform="matrix(26.75 0 0 -17.2641 -316.5 155.4338)">
	<stop  offset="0" style="stop-color:#E1ABD9"/>
	<stop  offset="1" style="stop-color:#A163F5"/>
</linearGradient>
<path id="_123456" class="st0" d="M28.49,21.1l-0.8-9.21c-0.15-1.36-1.3-2.38-2.67-2.37h-4.65c-0.14-1.72-1.63-3.02-3.35-2.93h-2.38
	c-1.72-0.09-3.21,1.21-3.35,2.93H5.24c-1.37-0.02-2.53,1-2.67,2.36l-0.82,9.23c0,0.08,0.02,0.15,0.02,0.23l-0.02,0.21
	c0.04,0.71,0.44,1.34,1.06,1.68c0.51,0.4,1.13,0.62,1.78,0.62h21.06c0.65,0,1.28-0.22,1.79-0.63c0.63-0.34,1.03-0.99,1.06-1.7
	l-0.02-0.21C28.48,21.25,28.49,21.18,28.49,21.1z M27.16,22.91c-0.46,0.26-0.98,0.4-1.51,0.4h-10.3v-2.42h4.2v-4.77h7.89l0.59,5.24
	C27.97,21.97,27.66,22.53,27.16,22.91z M19.55,12.98h5.47c1.01-0.11,1.95,0.52,2.23,1.49l0.14,1.21h-7.84V12.98z M11.15,20.44v-7.46
	h7.97v7.46H11.15z M10.71,15.68H2.86L3,14.47c0.29-0.96,1.23-1.59,2.23-1.48h5.48L10.71,15.68z M2.2,21.37l0.61-5.26h7.9v4.77h4.21
	v2.42H4.59c-0.53,0-1.05-0.13-1.51-0.39C2.59,22.53,2.27,21.98,2.2,21.37z M14.64,7.03h2.38c1.49-0.09,2.77,1.02,2.91,2.5h-8.21
	C11.86,8.04,13.16,6.94,14.64,7.03z M5.24,9.96h6.05v0.02h9.09V9.96h4.65c1.14-0.02,2.11,0.84,2.23,1.97l0.15,1.74
	c-0.56-0.74-1.46-1.16-2.39-1.12H5.24c-0.93-0.04-1.83,0.38-2.39,1.12l0.16-1.74C3.12,10.78,4.1,9.92,5.24,9.96z"/>
<linearGradient id="_123456_-_Outline_1_" gradientUnits="userSpaceOnUse" x1="12.1958" y1="9.2471" x2="12.1958" y2="8.2471" gradientTransform="matrix(27.254 0 0 -17.7602 -317.255 170.5646)">
	<stop  offset="0" style="stop-color:#D8A1DC"/>
	<stop  offset="1" style="stop-color:#A264F4"/>
</linearGradient>
<path id="_123456_-_Outline" class="st1" d="M25.65,24.1H4.59c-0.7,0-1.37-0.24-1.92-0.67c-0.69-0.38-1.13-1.1-1.17-1.89v-0.02
	l0.02-0.2c0-0.02,0-0.05-0.01-0.07c-0.01-0.05-0.01-0.1-0.01-0.15v-0.02l0.82-9.23c0.16-1.49,1.42-2.61,2.92-2.59h5.82
	c0.09-0.78,0.47-1.5,1.07-2.01c0.7-0.6,1.59-0.93,2.51-0.92h2.38c0.92-0.01,1.81,0.32,2.51,0.92c0.6,0.51,0.98,1.23,1.07,2.01h4.42
	c1.5-0.01,2.76,1.11,2.92,2.6l0.8,9.23c0,0.05,0,0.1-0.01,0.14c0,0.02,0,0.04,0,0.06l0.02,0.22c-0.03,0.79-0.47,1.51-1.17,1.9
	C27.04,23.86,26.36,24.1,25.65,24.1z M3.61,23.4c0.31,0.13,0.65,0.19,0.98,0.19h21.06c0.32,0,0.65-0.06,0.95-0.18
	c-0.31,0.09-0.63,0.14-0.95,0.14H15.1v-0.01H4.59C4.26,23.55,3.93,23.5,3.61,23.4z M15.6,23.06h10.05c0.48,0,0.95-0.12,1.37-0.36
	c0.42-0.33,0.7-0.81,0.76-1.34l-0.56-4.99H19.8v4.77h-4.2L15.6,23.06z M3.22,22.7c0.42,0.23,0.89,0.35,1.37,0.35h10.08v-1.92h-4.21
	v-4.77H3.04l-0.58,5.01C2.52,21.89,2.8,22.37,3.22,22.7z M28.25,21.6c-0.06,0.34-0.2,0.66-0.4,0.94
	C28.08,22.28,28.22,21.95,28.25,21.6L28.25,21.6z M2.01,21.73c0.04,0.3,0.17,0.58,0.37,0.81C2.21,22.29,2.09,22.02,2.01,21.73z
	 M27.67,15.93l0.52,4.66l-0.6-6.91l-0.33,0.12c0.13,0.2,0.21,0.42,0.24,0.66L27.67,15.93L27.67,15.93z M2.66,13.66l-0.59,6.61
	l0.68-5.84C2.78,14.2,2.87,13.98,3,13.78L2.66,13.66z M11.4,20.19h7.47v-6.96H11.4V20.19z M19.8,15.43h7.31L27,14.49
	c-0.08-0.71-0.95-1.27-1.98-1.27H19.8V15.43z M3.14,15.43h7.32v-2.19H5.23c-1.01,0-1.9,0.56-1.98,1.26L3.14,15.43z M5.24,12.3h19.78
	c0.75-0.01,1.48,0.22,2.08,0.67l-0.09-1.02c-0.11-1.01-0.97-1.76-1.98-1.74h-4.4v0.02h-9.59v-0.02h-5.8
	c-1.02-0.03-1.88,0.73-1.98,1.74l-0.09,1.02C3.77,12.52,4.5,12.28,5.24,12.3L5.24,12.3z M12,9.28h7.67c-0.28-1.22-1.39-2.06-2.64-2
	h-2.38C13.39,7.2,12.27,8.05,12,9.28L12,9.28z"/>
</svg>
