<?xml version="1.0" encoding="utf-8"?>
<!-- Generator: Adobe Illustrator 25.2.3, SVG Export Plug-In . SVG Version: 6.00 Build 0)  -->
<svg version="1.1" id="Layer_1" xmlns="http://www.w3.org/2000/svg" xmlns:xlink="http://www.w3.org/1999/xlink" x="0px" y="0px"
	 viewBox="0 0 30 30" style="enable-background:new 0 0 30 30;" xml:space="preserve">
<style type="text/css">
	.st0{fill:url(#_123456_1_);}
</style>
<linearGradient id="_123456_1_" gradientUnits="userSpaceOnUse" x1="12.4067" y1="8.6053" x2="12.4067" y2="7.6053" gradientTransform="matrix(26.75 0 0 -17.2641 -316.75 155.1838)">
	<stop  offset="0" style="stop-color:#E1ABD9"/>
	<stop  offset="1" style="stop-color:#A163F5"/>
</linearGradient>
<path id="_123456" class="st0" d="M28.49,21.14l-0.8-9.21c-0.15-1.36-1.3-2.38-2.67-2.37h-4.65c-0.14-1.72-1.63-3.02-3.35-2.93
	h-2.38c-1.72-0.09-3.21,1.21-3.35,2.93H5.24c-1.37-0.02-2.53,1-2.67,2.36l-0.82,9.23c0,0.08,0.02,0.15,0.02,0.23l-0.02,0.21
	c0.04,0.71,0.44,1.34,1.06,1.68c0.51,0.4,1.13,0.62,1.78,0.62h21.06c0.65,0,1.28-0.22,1.79-0.63c0.63-0.34,1.03-0.99,1.06-1.7
	l-0.02-0.21C28.48,21.29,28.49,21.22,28.49,21.14z M27.16,22.95c-0.46,0.26-0.98,0.4-1.51,0.4h-10.3v-2.42h4.2v-4.77h7.89l0.59,5.24
	C27.97,22.01,27.66,22.57,27.16,22.95z M19.55,13.02h5.47c1.01-0.11,1.95,0.52,2.23,1.49l0.14,1.21h-7.84V13.02z M11.15,20.48v-7.46
	h7.97v7.46H11.15z M10.71,15.72H2.86L3,14.51c0.29-0.96,1.23-1.59,2.23-1.48h5.48L10.71,15.72z M2.2,21.41l0.61-5.26h7.9v4.77h4.21
	v2.42H4.59c-0.53,0-1.05-0.13-1.51-0.39C2.59,22.57,2.27,22.02,2.2,21.41z M14.64,7.07h2.38c1.49-0.09,2.77,1.02,2.91,2.5h-8.21
	C11.87,8.08,13.16,6.98,14.64,7.07z M5.24,10h6.05v0.02h9.09V10h4.65c1.14-0.02,2.11,0.84,2.23,1.97l0.15,1.74
	c-0.56-0.74-1.46-1.16-2.39-1.12H5.24c-0.93-0.04-1.83,0.38-2.39,1.12l0.16-1.74C3.12,10.82,4.1,9.96,5.24,10z"/>
</svg>
