<svg width="32" height="32" viewBox="0 0 32 32" fill="none" xmlns="http://www.w3.org/2000/svg">
<path d="M30 9.77778V22.2222C30 24.285 29.1806 26.2633 27.7219 27.7219C26.2633 29.1806 24.285 30 22.2222 30H9.77778C7.71498 30 5.73667 29.1806 4.27806 27.7219C2.81944 26.2633 2 24.285 2 22.2222V9.77778C2 7.71498 2.81944 5.73667 4.27806 4.27806C5.73667 2.81944 7.71498 2 9.77778 2H22.2222C24.285 2 26.2633 2.81944 27.7219 4.27806C29.1806 5.73667 30 7.71498 30 9.77778Z" stroke="black" stroke-width="2.5" stroke-linecap="round" stroke-linejoin="round"/>
<path d="M13.5535 9.85389V12.3749H11.6923V15.456H13.5535V24.6154H17.3793V15.456H19.9458C19.9458 15.456 20.1877 13.9786 20.304 12.362H17.394V10.2567C17.394 9.93994 17.8113 9.51703 18.2249 9.51703H20.3077V6.30769H17.4734C13.5404 6.30769 13.5514 9.26917 13.5534 9.82277C13.5535 9.83418 13.5535 9.84457 13.5535 9.85389Z" fill="black"/>
<path d="M13.5535 9.85389V12.3749H11.6923V15.456H13.5535V24.6154H17.3793V15.456H19.9458C19.9458 15.456 20.1877 13.9786 20.304 12.362H17.394V10.2567C17.394 9.93994 17.8113 9.51703 18.2249 9.51703H20.3077V6.30769H17.4734C13.5404 6.30769 13.5514 9.26917 13.5534 9.82277C13.5535 9.83418 13.5535 9.84457 13.5535 9.85389Z" stroke="black"/>
</svg>
