<svg width="32" height="32" viewBox="0 0 32 32" fill="none" xmlns="http://www.w3.org/2000/svg">
<path d="M8.94012 10.4303L8.9198 10.4291L8.89945 10.4299C8.70723 10.4379 8.51537 10.4072 8.33522 10.3396C8.15507 10.2721 7.99029 10.1692 7.85062 10.0368C7.71096 9.90453 7.59924 9.74555 7.52209 9.56931C7.44494 9.39308 7.40392 9.20316 7.40145 9.01078L7.40158 9.01078L7.40117 9.00031C7.39315 8.7948 7.42637 8.58977 7.49889 8.39731C7.57141 8.20486 7.68175 8.02889 7.8234 7.87978C7.96505 7.73067 8.13514 7.61146 8.32362 7.52917C8.51211 7.44689 8.71517 7.40319 8.92082 7.40068L8.92082 7.40073L8.92698 7.40056C9.12595 7.39506 9.32393 7.43032 9.50876 7.50418C9.69358 7.57805 9.86134 7.68895 10.0017 7.83006C10.1421 7.97117 10.2521 8.13951 10.325 8.32472C10.3979 8.50994 10.4321 8.7081 10.4256 8.90704L10.8253 8.9202L10.4261 8.94439C10.4381 9.14266 10.4079 9.34123 10.3375 9.52695C10.267 9.71268 10.158 9.88135 10.0175 10.0218C9.87708 10.1623 9.70841 10.2713 9.52268 10.3417C9.33695 10.4122 9.13839 10.4424 8.94012 10.4303Z" stroke="black" stroke-width="0.8"/>
<path d="M7.40653 12.1868H10.4304V23.8156H7.40653V12.1868Z" stroke="black" stroke-width="0.8"/>
<path d="M19.9934 12.4033L19.9934 12.4035H20.0046C21.106 12.4035 22.0405 12.7701 22.7045 13.5173C23.3732 14.2699 23.8114 15.4582 23.8114 17.1826V23.8358H20.7875V17.641C20.7875 16.8351 20.638 16.0775 20.2682 15.5086C19.8835 14.9167 19.2788 14.5608 18.4731 14.5608C17.151 14.5608 16.5793 15.6436 16.2917 16.3146L16.2805 16.3407L16.2732 16.3681C16.1789 16.7178 16.1419 17.0804 16.1637 17.4418V23.8408H13.1398V16.0188C13.1398 15.295 13.1156 14.6195 13.0916 13.9976C13.0898 13.9506 13.088 13.904 13.0862 13.8576C13.0702 13.4432 13.0552 13.0553 13.0482 12.6906H15.7293L15.8792 13.9647L15.9208 14.3179H16.2765H16.3722H16.5903L16.7084 14.1346C17.0608 13.5879 17.5483 13.1413 18.1238 12.838C18.6992 12.5347 19.3431 12.385 19.9934 12.4033Z" stroke="black" stroke-width="0.8"/>
<path d="M25.408 1H6.59202C3.50363 1 1 3.50363 1 6.59202V25.408C1 28.4964 3.50363 31 6.59202 31H25.408C28.4964 31 31 28.4964 31 25.408V6.59202C31 3.50363 28.4964 1 25.408 1Z" stroke="black" stroke-linecap="round" stroke-linejoin="round"/>
</svg>
