<svg width="23" height="29" viewBox="0 0 23 29" fill="none" xmlns="http://www.w3.org/2000/svg">
<path d="M22.8422 9.05483C22.3261 5.04037 19.964 2.36406 16.2785 0.858638C13.52 -0.202194 10.4866 -0.282416 7.67695 0.631154C5.6138 1.20754 3.77585 2.41158 2.41234 4.08002C1.04882 5.74846 0.22571 7.80057 0.0546166 9.95807C-0.196579 12.2764 0.424696 14.6054 1.79479 16.4816C2.23844 17.1159 2.82315 17.6362 3.50187 18.0004C3.96504 18.2479 4.09075 18.1877 4.21647 17.6792C4.34218 17.1707 4.42158 16.7224 4.57376 16.2608C4.66284 16.0536 4.68964 15.8245 4.65081 15.602C4.61199 15.3795 4.50924 15.1735 4.35541 15.0096C4.22004 14.8459 4.10862 14.6634 4.02458 14.4677C3.23529 12.88 3.00966 11.0663 3.38551 9.33046C3.76135 7.59462 4.71583 6.04217 6.08897 4.93331C7.28917 3.95582 8.73295 3.33237 10.2612 3.13168C11.7894 2.93098 13.3428 3.16082 14.7501 3.79588C15.748 4.17589 16.6349 4.8043 17.3289 5.62297C18.0228 6.44164 18.5013 7.4241 18.7201 8.47942C19.3735 11.1106 18.9841 13.8958 17.6349 16.2407C17.2442 17.0354 16.6531 17.7119 15.9212 18.2018C15.1893 18.6916 14.3426 18.9776 13.4665 19.0308C12.7854 19.1015 12.1028 18.9111 11.5539 18.4973C11.0049 18.0835 10.6296 17.4763 10.5022 16.796C10.4397 16.2736 10.4917 15.7436 10.6544 15.2438C11.025 13.9658 11.4021 12.6879 11.7594 11.41C11.9717 10.7152 12.0634 9.98861 12.0307 9.26224C12.0297 8.92022 11.9502 8.58309 11.7984 8.27745C11.6467 7.97181 11.4267 7.70601 11.156 7.501C10.8852 7.296 10.5711 7.1574 10.2383 7.09613C9.90558 7.03486 9.56329 7.0526 9.23847 7.14795C8.76879 7.26882 8.33373 7.49948 7.96829 7.82138C7.60284 8.14328 7.31722 8.54743 7.13439 9.0013C6.79044 9.76051 6.60198 10.5822 6.58038 11.417C6.55877 12.2518 6.70447 13.0824 7.00868 13.8588C7.08649 14.0731 7.10029 14.3057 7.04838 14.5279C6.51905 16.7827 6.04265 19.0508 5.44716 21.2922C4.84726 23.4238 4.65857 25.6522 4.89137 27.8559C4.94724 28.1759 5.02687 28.4913 5.12956 28.7993L6.0625 29C6.0625 28.9599 6.22792 28.7123 6.36025 28.4447C7.39244 26.3906 8.22613 24.8986 8.64959 22.9114C8.85471 21.968 9.12599 21.0447 9.3708 20.1147C9.3708 20.0143 9.37081 19.8738 9.50314 19.8403C9.63547 19.8069 9.66194 19.9541 9.71487 20.0344C9.98476 20.4115 10.3268 20.73 10.7206 20.9711C11.7342 21.6166 12.9276 21.9124 14.1215 21.8141C16.1549 21.7325 18.082 20.8741 19.5141 19.4121C20.8492 18.0819 21.8485 16.4466 22.4277 14.6441C23.0069 12.8415 23.1491 10.9246 22.8422 9.05483Z" fill="black"/>
</svg>
