<svg width="32" height="32" viewBox="0 0 32 32" fill="none" xmlns="http://www.w3.org/2000/svg">
<path d="M25.408 1H6.59202C3.50363 1 1 3.50363 1 6.59202V25.408C1 28.4964 3.50363 31 6.59202 31H25.408C28.4964 31 31 28.4964 31 25.408V6.59202C31 3.50363 28.4964 1 25.408 1Z" stroke="black" stroke-linecap="round" stroke-linejoin="round"/>
<path d="M13.7938 14.5044H14.2938V14.0044V11.1441C14.2938 9.72305 14.6939 8.57467 15.4519 7.7839C16.206 6.99708 17.3761 6.5 19.0488 6.5H21.0632V9.13637H19.8958C19.0626 9.13637 18.4354 9.45521 18.0276 9.96295C17.6333 10.4538 17.4801 11.0752 17.4801 11.6408V14V14.5H17.9801H20.9353L20.3713 16.9546H17.9801H17.4801V17.4546V25.7439H14.2938V17.459V16.959H13.7938H11.5V14.5044H13.7938Z" stroke="black"/>
</svg>
