<svg width="35" height="29" viewBox="0 0 35 29" fill="none" xmlns="http://www.w3.org/2000/svg">
<path d="M13.5359 27.8395C10.1743 28.2722 6.77443 27.8245 3.66228 26.5625C6.27197 26.2089 8.77291 25.2065 10.925 23.6207L12.635 22.3607L10.5743 21.8455C10.3468 21.7887 10.1419 21.7398 9.95189 21.6946C9.53439 21.5951 9.18893 21.5128 8.83452 21.4L8.83454 21.4L8.82376 21.3967C7.9746 21.137 7.19288 20.6938 6.53398 20.0986C6.09221 19.6995 5.71289 19.2385 5.40708 18.7314C5.95518 18.7096 6.49953 18.6166 7.02625 18.4537L10.3829 17.4157L6.98275 16.5306C5.98969 16.2721 5.07527 15.7738 4.31975 15.0794L4.3141 15.0742L4.30837 15.0691C3.34812 14.2133 2.69754 13.0741 2.44287 11.8278C3.0121 12.004 3.60608 12.0948 4.20531 12.0956L6.66264 12.0992L4.90606 10.3808C4.4219 9.90717 3.96251 9.40885 3.52973 8.88785C2.87918 8.00734 2.47601 6.96862 2.36229 5.87946C2.27209 5.01555 2.36663 4.14507 2.63647 3.32498C6.18255 7.10359 10.9817 9.48132 16.1544 10.004L16.1554 10.0041C16.3621 10.0248 16.6035 10.0452 16.8232 10.0286C17.0388 10.0123 17.4327 9.94798 17.7414 9.6118C18.0391 9.28753 18.0783 8.90187 18.0859 8.70489C18.094 8.49818 18.0712 8.26805 18.0493 8.06854C17.9387 6.82296 18.1975 5.57231 18.7937 4.47292C19.3905 3.3722 20.2989 2.47211 21.405 1.88539C22.517 1.31083 23.7761 1.08371 25.0188 1.23356C26.2521 1.38228 27.4127 1.89543 28.3525 2.70704C28.6491 2.99894 29.0199 3.20463 29.4252 3.30149C29.8336 3.3991 30.2608 3.38234 30.6599 3.25343C31.2237 3.10137 31.779 2.92045 32.3234 2.7115C32.078 3.11045 31.7829 3.44889 31.384 3.7514L28.3542 6.04904L32.1223 5.53916C32.211 5.52716 32.2972 5.5146 32.3812 5.50145C32.1179 5.74919 31.8431 5.98486 31.5574 6.20764C31.2241 6.44024 30.9566 6.75563 30.7817 7.12303C30.6072 7.48941 30.5308 7.89458 30.5597 8.29891C30.622 12.714 29.168 17.0173 26.4398 20.49L26.4307 20.5016L26.4219 20.5135C24.9075 22.5632 22.9812 24.2736 20.7667 25.5347C18.5522 26.7958 16.0984 27.5799 13.5629 27.8364L13.5494 27.8378L13.5359 27.8395Z" stroke="black" stroke-width="2"/>
</svg>
