<svg width="33" height="27" viewBox="0 0 33 27" fill="none" xmlns="http://www.w3.org/2000/svg">
<path d="M12.6513 26.3472C8.8908 26.8311 5.08018 26.1586 1.72215 24.4315C4.65935 24.3717 7.52303 23.4073 9.91121 21.6475L10.7662 21.0175L9.73588 20.7599C9.53674 20.7101 9.35234 20.6662 9.17813 20.6247C8.78066 20.5299 8.43622 20.4478 8.0907 20.3379L8.09071 20.3379L8.08532 20.3362C7.23476 20.0761 6.45176 19.6322 5.79176 19.036C5.16171 18.4668 4.65846 17.772 4.31405 16.9969C5.02046 17.0596 5.73284 16.9842 6.4113 16.7744L8.08964 16.2554L6.38955 15.8129C5.39723 15.5546 4.48348 15.0566 3.72852 14.3627L3.72855 14.3627L3.72283 14.3576C2.56985 13.3301 1.86194 11.8951 1.74736 10.3564C2.42562 10.6728 3.16504 10.8374 3.91401 10.8385L5.14268 10.8403L4.26439 9.9811C3.80036 9.52715 3.36022 9.04941 2.94576 8.5498C2.29038 7.66648 1.88429 6.62324 1.77005 5.52913C1.65538 4.43081 1.83906 3.3219 2.30175 2.31922L2.30189 2.31928L2.30674 2.30805C2.30712 2.30718 2.30749 2.30631 2.30787 2.30545C5.57522 6.04028 10.1389 8.39534 15.0763 8.89427L15.0768 8.89432C15.2707 8.91371 15.4607 8.92845 15.6229 8.91617C15.7831 8.90405 16.0155 8.85945 16.1927 8.66646C16.3644 8.47942 16.3943 8.24923 16.4002 8.09696C16.4063 7.93945 16.3887 7.75391 16.3679 7.56415C16.2564 6.31925 16.5147 5.06908 17.1106 3.97027C17.7068 2.87074 18.6144 1.97176 19.7195 1.38608C20.8315 0.81104 22.0907 0.583673 23.3336 0.733542C24.5713 0.882788 25.7358 1.39927 26.6772 2.21621C26.8988 2.43774 27.1776 2.59371 27.4827 2.66662C27.7891 2.73986 28.1098 2.72636 28.4088 2.62783C29.2864 2.39184 30.1409 2.07861 30.9626 1.692C30.6142 2.57806 30.2183 3.27633 29.4656 3.84717L27.9507 4.99599L29.8348 4.74105C30.4611 4.6563 30.9462 4.54089 31.4197 4.38576C30.8875 5.03375 30.2847 5.62114 29.622 6.13684C29.3688 6.31118 29.1659 6.54909 29.0337 6.82679C28.9017 7.10398 28.8448 7.41088 28.8687 7.71676C28.9311 11.9285 27.5454 16.0341 24.943 19.3467L24.9385 19.3525L24.9341 19.3585C23.4892 21.3142 21.6512 22.9461 19.5382 24.1494C17.4253 25.3527 15.084 26.1008 12.6647 26.3456L12.6647 26.3454L12.6513 26.3472ZM4.15687 16.6163C4.15689 16.6163 4.15707 16.617 4.1573 16.6184L4.15687 16.6163Z" stroke="black"/>
</svg>
