<svg width="23" height="29" viewBox="0 0 23 29" fill="none" xmlns="http://www.w3.org/2000/svg">
<path d="M22.3463 9.11858L22.3474 9.12722L22.3488 9.13581C22.6429 10.9274 22.5066 12.7641 21.9517 14.4911C21.3968 16.2181 20.4395 17.7843 19.1612 19.0579L19.1611 19.0579L19.1569 19.0622C17.8134 20.4337 16.0067 21.238 14.1015 21.3145L14.091 21.3149L14.0805 21.3158C12.9957 21.4051 11.9111 21.1365 10.9892 20.5493L10.9892 20.5493L10.9816 20.5446C10.6521 20.3429 10.3646 20.0775 10.1358 19.7632C10.1339 19.7593 10.1311 19.7538 10.1274 19.7462L10.1258 19.7429C10.1145 19.7196 10.0872 19.6636 10.0488 19.6085C10.007 19.5486 9.92864 19.4548 9.79812 19.3931C9.65634 19.3262 9.50887 19.3232 9.3806 19.3556C9.10992 19.424 8.96731 19.624 8.911 19.8004C8.88165 19.8924 8.87354 19.9853 8.87141 20.0475C8.80918 20.2827 8.74457 20.5204 8.67944 20.76C8.49726 21.4301 8.31097 22.1155 8.161 22.8052L8.16057 22.8072C7.80058 24.4965 7.13637 25.8064 6.26423 27.5263C6.15076 27.7501 6.03378 27.9808 5.91348 28.2202L5.91205 28.223C5.87681 28.2943 5.83843 28.3649 5.80051 28.4322L5.5211 28.3721C5.46667 28.1793 5.42185 27.9838 5.38681 27.7863C5.16344 25.6513 5.34731 23.4927 5.92846 21.4277L5.92851 21.4277L5.93039 21.4206C6.34428 19.8628 6.70228 18.2863 7.05781 16.7208C7.21585 16.0249 7.37339 15.3311 7.53514 14.6421L7.53525 14.6417C7.60923 14.3251 7.5896 13.9936 7.47865 13.6881L7.4788 13.6881L7.47421 13.6764C7.1944 12.9623 7.06033 12.1981 7.08021 11.43C7.10009 10.6618 7.2735 9.90587 7.58984 9.20763L7.59422 9.19796L7.59818 9.18812C7.75202 8.80621 7.99214 8.46668 8.29878 8.19658C8.60539 7.9265 8.96999 7.73334 9.36308 7.63218L9.37123 7.63008L9.37931 7.62771C9.62904 7.5544 9.89208 7.54078 10.1478 7.58787C10.4035 7.63495 10.6454 7.74153 10.8541 7.89962C11.0629 8.05773 11.2331 8.2631 11.3506 8.49985C11.4682 8.73663 11.53 8.99811 11.5307 9.26361L11.5307 9.2742L11.5312 9.28477C11.5614 9.95418 11.4768 10.6238 11.2812 11.2639L11.2811 11.2638L11.2779 11.2753C11.0107 12.2311 10.7326 13.1859 10.4536 14.1438C10.3612 14.4612 10.2686 14.7788 10.1764 15.097C9.9932 15.6636 9.93499 16.2638 10.0058 16.8554L10.0077 16.8718L10.0108 16.8881C10.161 17.69 10.6036 18.4071 11.2529 18.8966C11.8994 19.384 12.7035 19.6099 13.5073 19.5292C14.4685 19.469 15.3969 19.1544 16.1993 18.6173C17.0001 18.0813 17.6471 17.3428 18.0763 16.4761C19.482 14.0247 19.8876 11.1165 19.2077 8.36827C18.9711 7.23516 18.4564 6.17986 17.7103 5.29967C16.9653 4.4208 16.0136 3.74474 14.9421 3.334C13.4538 2.66541 11.8118 2.42375 10.1961 2.63593C8.57583 2.84872 7.04567 3.50954 5.77404 4.54496C4.31192 5.72597 3.29659 7.37836 2.89683 9.22465C2.49796 11.0668 2.7358 12.9916 3.57087 14.6782C3.67298 14.9126 3.80734 15.1314 3.9701 15.3282L3.98012 15.3404L3.99089 15.3518C4.07762 15.4442 4.13611 15.561 4.15826 15.6879C4.18041 15.8148 4.16507 15.9455 4.11441 16.0633L4.10576 16.0834L4.0989 16.1042C3.98764 16.4418 3.90882 16.7889 3.83226 17.1261C3.79917 17.2719 3.76649 17.4158 3.7318 17.5563C3.12524 17.2295 2.60209 16.7635 2.20453 16.195L2.20461 16.195L2.19858 16.1867C0.902238 14.4116 0.31387 12.207 0.551707 10.0119L0.552483 10.0048L0.553052 9.9976C0.716137 7.94108 1.5007 5.98567 2.7995 4.39642C4.09824 2.80724 5.84817 1.66121 7.81149 1.11271L7.82159 1.10989L7.83156 1.10665C10.5304 0.229093 13.444 0.305545 16.0942 1.32346C19.6337 2.7707 21.8564 5.3082 22.3463 9.11858Z" stroke="black"/>
</svg>
