<svg width="32" height="32" viewBox="0 0 32 32" fill="none" xmlns="http://www.w3.org/2000/svg">
<path d="M8.96129 10.081L8.92319 10.0787L8.88504 10.0802C8.73957 10.0862 8.59438 10.063 8.45805 10.0119C8.32173 9.96081 8.19703 9.8829 8.09133 9.78276C7.98564 9.68263 7.9011 9.56232 7.84272 9.42896C7.78433 9.29559 7.75329 9.15187 7.75142 9.00628L7.75129 8.99646L7.75091 8.98664C7.7447 8.82785 7.77038 8.66943 7.82641 8.52073C7.88244 8.37202 7.9677 8.23605 8.07715 8.12084C8.1866 8.00563 8.31802 7.91352 8.46366 7.84994C8.6093 7.78636 8.7662 7.7526 8.92509 7.75065L8.92509 7.75074L8.93666 7.75042C9.08789 7.74624 9.23838 7.77305 9.37887 7.82919C9.51936 7.88533 9.64687 7.96963 9.75358 8.07689C9.86028 8.18416 9.9439 8.31212 9.9993 8.4529C10.0547 8.59368 10.0807 8.74431 10.0757 8.89552L10.8253 8.9202L10.0767 8.96556C10.0857 9.1144 10.0631 9.26345 10.0102 9.40286C9.95733 9.54228 9.87547 9.66889 9.77004 9.77432C9.66461 9.87975 9.53801 9.9616 9.39859 10.0145C9.25917 10.0673 9.11012 10.09 8.96129 10.081Z" stroke="black" stroke-width="1.5"/>
<path d="M7.75653 12.5368H10.0804V23.4656H7.75653V12.5368Z" stroke="black" stroke-width="1.5"/>
<path d="M19.9835 12.7532L19.9941 12.7535H20.0046C21.0249 12.7535 21.8569 13.0904 22.4429 13.7498C23.0377 14.4193 23.4614 15.5144 23.4614 17.1826V23.4858H21.1375V17.641C21.1375 16.7999 20.9828 15.9657 20.5617 15.3178C20.1125 14.6268 19.3974 14.2108 18.4731 14.2108C16.911 14.2108 16.2579 15.5049 15.97 16.1768L15.9491 16.2256L15.9352 16.277C15.8321 16.6597 15.791 17.0564 15.8137 17.4521V23.4908H13.4898V16.0188C13.4898 15.2877 13.4653 14.6062 13.4414 13.9842C13.4396 13.9377 13.4378 13.8916 13.436 13.8459C13.4251 13.5638 13.4148 13.2961 13.4071 13.0406H15.4181L15.5316 14.0055L15.6095 14.6679H16.2765H16.3722H16.7811L17.0026 14.3242C17.3224 13.8281 17.7648 13.4229 18.2869 13.1476C18.8091 12.8724 19.3935 12.7366 19.9835 12.7532Z" stroke="black" stroke-width="1.5"/>
<path d="M25.408 1H6.59202C3.50363 1 1 3.50363 1 6.59202V25.408C1 28.4964 3.50363 31 6.59202 31H25.408C28.4964 31 31 28.4964 31 25.408V6.59202C31 3.50363 28.4964 1 25.408 1Z" stroke="black" stroke-width="1.5" stroke-linecap="round" stroke-linejoin="round"/>
</svg>
