<svg width="32" height="32" viewBox="0 0 32 32" fill="none" xmlns="http://www.w3.org/2000/svg">
<path d="M25.408 1H6.59202C3.50363 1 1 3.50363 1 6.59202V25.408C1 28.4964 3.50363 31 6.59202 31H25.408C28.4964 31 31 28.4964 31 25.408V6.59202C31 3.50363 28.4964 1 25.408 1Z" stroke="black" stroke-width="2" stroke-linecap="round" stroke-linejoin="round"/>
<path d="M19.8958 9.63637H21.5632V6H19.0488C15.5011 6 13.7938 8.11974 13.7938 11.1441V14.0044H11V17.459H13.7938V26.2439H17.9801V17.4546H20.7694L21.5632 14H17.9801V11.6408C17.9801 10.6741 18.5078 9.63637 19.8958 9.63637Z" fill="black"/>
</svg>
