<svg width="32" height="32" viewBox="0 0 32 32" fill="none" xmlns="http://www.w3.org/2000/svg">
<path d="M10.8253 8.9202C10.8408 9.17497 10.802 9.43012 10.7115 9.66877C10.621 9.90743 10.4809 10.1242 10.3004 10.3046C10.1199 10.4851 9.90316 10.6252 9.6645 10.7157C9.42584 10.8062 9.1707 10.845 8.91593 10.8296C8.67026 10.8397 8.42507 10.8005 8.19483 10.7142C7.9646 10.6279 7.75402 10.4963 7.57552 10.3272C7.39703 10.1581 7.25427 9.95496 7.15566 9.72972C7.05706 9.50449 7.00464 9.26177 7.00148 9.01592C6.99136 8.75702 7.03322 8.49872 7.12458 8.25627C7.21594 8.01382 7.35495 7.79212 7.5334 7.60428C7.71185 7.41644 7.92613 7.26625 8.16358 7.16258C8.40103 7.05892 8.65685 7.00388 8.91593 7.00071C9.16944 6.9937 9.4217 7.03863 9.6572 7.13275C9.89269 7.22686 10.1064 7.36816 10.2853 7.54796C10.4642 7.72776 10.6043 7.94225 10.6972 8.17824C10.7901 8.41423 10.8337 8.66673 10.8253 8.9202V8.9202Z" fill="black"/>
<path d="M10.8304 11.7868H7.00653V24.2156H10.8304V11.7868Z" fill="black"/>
<path d="M20.0046 12.0035C19.2856 11.9832 18.5736 12.1488 17.9373 12.4841C17.3009 12.8195 16.7619 13.3133 16.3722 13.9179H16.2765L16.085 12.2906H12.6441C12.6441 13.3436 12.7398 14.588 12.7398 16.0188V24.2408H16.5637V17.4294C16.543 17.1073 16.5754 16.7839 16.6594 16.4722C16.9465 15.8021 17.4252 14.9608 18.4731 14.9608C19.8132 14.9608 20.3875 16.1095 20.3875 17.641V24.2358H24.2114V17.1826C24.2114 13.6056 22.3926 12.0035 20.0046 12.0035Z" fill="black"/>
<path d="M25.408 1H6.59202C3.50363 1 1 3.50363 1 6.59202V25.408C1 28.4964 3.50363 31 6.59202 31H25.408C28.4964 31 31 28.4964 31 25.408V6.59202C31 3.50363 28.4964 1 25.408 1Z" stroke="black" stroke-width="2" stroke-linecap="round" stroke-linejoin="round"/>
</svg>
