<svg width="32" height="32" viewBox="0 0 32 32" fill="none" xmlns="http://www.w3.org/2000/svg">
<path d="M25.408 1H6.59202C3.50363 1 1 3.50363 1 6.59202V25.408C1 28.4964 3.50363 31 6.59202 31H25.408C28.4964 31 31 28.4964 31 25.408V6.59202C31 3.50363 28.4964 1 25.408 1Z" stroke="black" stroke-width="1.5" stroke-linecap="round" stroke-linejoin="round"/>
<path d="M13.7938 14.7544H14.5438V14.0044V11.1441C14.5438 9.76861 14.9306 8.68905 15.6324 7.95689C16.3285 7.23065 17.4267 6.75 19.0488 6.75H20.8132V8.88637H19.8958C18.993 8.88637 18.2917 9.23492 17.8327 9.80639C17.394 10.3526 17.2301 11.034 17.2301 11.6408V14V14.75H17.9801H20.6213L20.1722 16.7046H17.9801H17.2301V17.4546V25.4939H14.5438V17.459V16.709H13.7938H11.75V14.7544H13.7938Z" stroke="black" stroke-width="1.5"/>
</svg>
