<svg width="32" height="32" viewBox="0 0 32 32" fill="none" xmlns="http://www.w3.org/2000/svg">
<path d="M25.4916 5.0001C25.8863 4.99544 26.2666 5.15386 26.5493 5.44066C26.8321 5.72747 26.9941 6.11929 27 6.53029C26.9767 6.92812 26.8085 7.30171 26.5297 7.57482C26.251 7.84794 25.8827 8 25.5 8C25.1173 8 24.749 7.84794 24.4702 7.57482C24.1915 7.30171 24.0233 6.92812 24 6.53029C24.0007 6.32759 24.04 6.12704 24.1155 5.94021C24.1909 5.75338 24.3012 5.58397 24.4399 5.44172C24.5785 5.29948 24.7428 5.18722 24.9234 5.11142C25.1039 5.03563 25.297 4.9978 25.4916 5.0001Z" stroke="black" stroke-width="1.5"/>
<path d="M25.408 1H6.59202C3.50363 1 1 3.50363 1 6.59202V25.408C1 28.4964 3.50363 31 6.59202 31H25.408C28.4964 31 31 28.4964 31 25.408V6.59202C31 3.50363 28.4964 1 25.408 1Z" stroke="black" stroke-width="1.5" stroke-linecap="round" stroke-linejoin="round"/>
<circle cx="16" cy="16" r="8.25" stroke="black" stroke-width="1.5"/>
</svg>
