<svg width="35" height="29" viewBox="0 0 35 29" fill="none" xmlns="http://www.w3.org/2000/svg">
<path d="M13.5678 28.0875C9.84421 28.5667 6.07431 27.9794 2.68998 26.4131C5.59513 26.1976 8.40174 25.1695 10.7767 23.4195L12.0592 22.4745L10.5137 22.0881C10.2936 22.0331 10.0923 21.9851 9.90375 21.9402C9.48095 21.8394 9.12223 21.7539 8.75872 21.6383L8.75873 21.6382L8.75065 21.6357C7.86645 21.3653 7.05248 20.9039 6.36638 20.2841C5.79928 19.7717 5.33099 19.1615 4.98315 18.484C5.64866 18.5028 6.31401 18.4123 6.95239 18.2149L9.4699 17.4364L6.91977 16.7725C5.88711 16.5037 4.93623 15.9855 4.15058 15.2634L4.15064 15.2634L4.14204 15.2557C3.03303 14.2674 2.32038 12.9162 2.12637 11.4525C2.78791 11.7108 3.49292 11.8446 4.20567 11.8456L6.04867 11.8483L4.73124 10.5595C4.23924 10.0782 3.7725 9.57174 3.33291 9.04215C2.65335 8.12453 2.23224 7.04133 2.11364 5.90542C2.00522 4.86695 2.15328 3.81938 2.54268 2.85401C6.07241 6.7627 10.9315 9.22497 16.1795 9.75529L16.1803 9.75537C16.3879 9.77612 16.6092 9.79407 16.8044 9.7793C16.9964 9.76476 17.3125 9.70931 17.5572 9.44272C17.7938 9.18505 17.8291 8.87412 17.8361 8.69516C17.8434 8.50858 17.8227 8.29498 17.8005 8.09321C17.6849 6.79785 17.9539 5.4971 18.5739 4.35375C19.1945 3.20934 20.139 2.27362 21.2892 1.66385C22.446 1.06587 23.7558 0.829462 25.0487 0.985361C26.3342 1.14037 27.5438 1.67607 28.5223 2.52339C28.7874 2.78629 29.1198 2.97146 29.4833 3.05834C29.849 3.14574 30.2316 3.13019 30.5887 3.01369C31.366 2.8044 32.1266 2.53944 32.8648 2.22109C32.5446 2.91842 32.1598 3.4768 31.5351 3.95059L29.2627 5.67382L32.0888 5.29142C32.4773 5.23885 32.8167 5.17534 33.1319 5.09943C32.6932 5.57324 32.2163 6.01128 31.7057 6.409C31.4054 6.61716 31.1646 6.90032 31.0074 7.23052C30.8505 7.55994 30.7824 7.92445 30.8096 8.28798C30.8744 12.7629 29.4015 17.1248 26.6364 20.6444L26.6295 20.6532L26.623 20.6621C25.0879 22.7398 23.1353 24.4736 20.8904 25.752C18.6456 27.0303 16.1582 27.8251 13.5881 28.0852L13.5779 28.0862L13.5678 28.0875ZM2.07235 10.7049C2.07237 10.705 2.07228 10.7059 2.07202 10.7078L2.07235 10.7049ZM1.43223 11.1501C1.42915 11.1494 1.42889 11.1492 1.43175 11.15L1.43223 11.1501Z" stroke="black" stroke-width="1.5"/>
</svg>
