<svg width="23" height="29" viewBox="0 0 23 29" fill="none" xmlns="http://www.w3.org/2000/svg">
<path d="M22.0983 9.15046L22.1 9.16341L22.1021 9.1763C22.3898 10.9287 22.2565 12.7254 21.7137 14.4146C21.1709 16.1038 20.2347 17.6355 18.9847 18.8808L18.9847 18.8808L18.9783 18.8873C17.6791 20.2136 15.9326 20.9908 14.0914 21.0647L14.0757 21.0653L14.06 21.0666C13.0298 21.1515 11.9995 20.8964 11.1235 20.3385L11.1235 20.3384L11.1121 20.3314C10.8166 20.1505 10.558 19.9135 10.3504 19.6332L10.3502 19.6328C10.3387 19.6089 10.3039 19.5372 10.2538 19.4654C10.1985 19.3863 10.0897 19.2544 9.90488 19.1671C9.70317 19.0718 9.49519 19.0688 9.31932 19.1132C8.94639 19.2075 8.74902 19.4857 8.67283 19.7244C8.63923 19.8298 8.62708 19.9347 8.62281 20.0097C8.56369 20.2327 8.50212 20.4592 8.43983 20.6883C8.25707 21.3606 8.06814 22.0556 7.91671 22.7521L7.91606 22.7551C7.56326 24.4107 6.91447 25.6905 6.04087 27.4139C5.93187 27.6289 5.81938 27.8508 5.70353 28.0812C5.67734 27.972 5.65433 27.862 5.63452 27.7514C5.41589 25.6507 5.59735 23.527 6.16911 21.4954L6.16919 21.4954L6.17201 21.4848C6.5871 19.9225 6.94679 18.3386 7.30281 16.7709C7.4606 16.0761 7.61767 15.3845 7.77853 14.6993L7.77869 14.6986C7.8637 14.3349 7.84115 13.9539 7.71363 13.6028L7.71042 13.5939L7.70698 13.5852C7.43937 12.9022 7.31111 12.1713 7.33013 11.4364C7.34915 10.7016 7.51504 9.97855 7.81756 9.3108L7.82413 9.2963L7.83008 9.28152C7.96942 8.9356 8.18678 8.62838 8.46402 8.38418C8.74122 8.14001 9.07058 7.9656 9.42539 7.87429L9.43761 7.87114L9.44972 7.86759C9.66191 7.8053 9.88533 7.79374 10.1025 7.83373C10.3198 7.87373 10.5254 7.9643 10.7032 8.09893C10.8811 8.23359 11.0263 8.40874 11.1267 8.61106C11.2272 8.8134 11.2801 9.03706 11.2807 9.2643L11.2807 9.28018L11.2814 9.29604C11.3104 9.93697 11.2294 10.578 11.0421 11.1908L11.0395 11.1994L11.0371 11.208C10.7703 12.1623 10.4927 13.1154 10.2139 14.0729C10.1217 14.3893 10.0294 14.7062 9.93733 15.0238C9.74395 15.6237 9.68262 16.2589 9.75756 16.8851L9.7605 16.9097L9.76506 16.9341C9.92662 17.7968 10.4029 18.5689 11.1024 19.0962C11.7976 19.6203 12.6625 19.8641 13.5276 19.7784C14.5314 19.7147 15.5007 19.3858 16.3384 18.825C17.1735 18.266 17.8484 17.4966 18.297 16.5939C19.7309 14.0892 20.1447 11.1196 19.4514 8.31273C19.206 7.14071 18.6732 6.04897 17.901 5.13802C17.1305 4.22905 16.1464 3.52919 15.0382 3.10309C13.5093 2.41771 11.823 2.17014 10.1635 2.38806C8.49725 2.60689 6.92388 3.28642 5.61653 4.35081C4.10995 5.5679 3.0642 7.27025 2.65249 9.17174C2.24209 11.0672 2.48608 13.0476 3.34416 14.7837C3.45527 15.0373 3.60105 15.2743 3.77744 15.4876L3.79248 15.5058L3.80863 15.523C3.86181 15.5796 3.89818 15.6518 3.91198 15.7309C3.92579 15.81 3.91618 15.8914 3.88474 15.9645L3.87176 15.9948L3.86146 16.026C3.74632 16.3753 3.66288 16.7426 3.58514 17.0849C3.57879 17.1128 3.57249 17.1406 3.5662 17.1682C3.11427 16.8761 2.72103 16.4973 2.4094 16.0517L2.405 16.0455L2.40047 16.0393C1.14101 14.3146 0.569095 12.1723 0.800252 10.0389L0.801416 10.0281L0.802269 10.0174C0.96135 8.01133 1.72663 6.10428 2.99307 4.55462C4.25943 3.00507 5.96535 1.88805 7.87875 1.3535L7.89391 1.34926L7.90887 1.3444C10.5524 0.484842 13.406 0.559416 16.0021 1.55589C19.4685 2.97403 21.6216 5.44211 22.0983 9.15046Z" stroke="black" stroke-width="1.5"/>
</svg>
