<svg width="30" height="30" viewBox="0 0 30 30" fill="none" xmlns="http://www.w3.org/2000/svg">
<path d="M14.4643 8.57143C12.6172 8.57143 10.8458 9.30516 9.53979 10.6112C8.23374 11.9173 7.5 13.6887 7.5 15.5357C7.5 17.3828 8.23374 19.1542 9.53979 20.4602C10.8458 21.7663 12.6172 22.5 14.4643 22.5C16.3113 22.5 18.0827 21.7663 19.3888 20.4602C20.6948 19.1542 21.4286 17.3828 21.4286 15.5357C21.4286 13.6887 20.6948 11.9173 19.3888 10.6112C18.0827 9.30516 16.3113 8.57143 14.4643 8.57143ZM14.4643 20.0586C13.2643 20.0586 12.1136 19.5819 11.2651 18.7334C10.4166 17.8849 9.93991 16.7341 9.93991 15.5342C9.93991 14.3343 10.4166 13.1835 11.2651 12.335C12.1136 11.4865 13.2643 11.0098 14.4643 11.0098C15.6642 11.0098 16.815 11.4865 17.6635 12.335C18.512 13.1835 18.9887 14.3343 18.9887 15.5342C18.9887 16.7341 18.512 17.8849 17.6635 18.7334C16.815 19.5819 15.6642 20.0586 14.4643 20.0586Z" fill="black"/>
<path d="M22.5 8.57143C23.0917 8.57143 23.5714 8.09173 23.5714 7.5C23.5714 6.90827 23.0917 6.42857 22.5 6.42857C21.9083 6.42857 21.4286 6.90827 21.4286 7.5C21.4286 8.09173 21.9083 8.57143 22.5 8.57143Z" fill="black"/>
<path d="M29.91 8.8155C29.8851 7.57128 29.6493 6.34031 29.2125 5.175C28.8354 4.1741 28.2453 3.26715 27.4829 2.517C26.7343 1.7541 25.8281 1.16385 24.8277 0.7875C23.6619 0.350798 22.4303 0.115446 21.1856 0.0915002C19.5865 0.0180002 19.075 0 15.0007 0C10.9265 0 10.415 0.0164999 8.81594 0.0899999C7.57115 0.114716 6.3396 0.350567 5.17376 0.7875C4.1736 1.16433 3.26755 1.75451 2.51863 2.517C1.75394 3.26587 1.16255 4.17313 0.78604 5.175C0.349763 6.34039 0.114411 7.57137 0.0900048 8.8155C0.015001 10.4145 0 10.926 0 15C0 19.074 0.015001 19.5855 0.0900048 21.1845C0.11444 22.4286 0.349791 23.6596 0.78604 24.825C1.1622 25.8267 1.75305 26.7339 2.51713 27.483C3.26685 28.2452 4.17332 28.8354 5.17376 29.2125C6.33972 29.6488 7.57126 29.8841 8.81594 29.9085C10.415 29.982 10.9265 30 14.9993 30C19.072 30 19.585 29.9835 21.1841 29.91C22.4283 29.8851 23.6594 29.6493 24.8247 29.2125C25.8214 28.8272 26.7265 28.2378 27.4821 27.4823C28.2377 26.7267 28.8271 25.8216 29.2125 24.825C29.6497 23.6598 29.8856 22.4288 29.91 21.1845C29.982 19.584 30 19.074 30 15C30 10.926 29.982 10.4145 29.91 8.8155ZM27.2106 21.0607C27.2101 21.0612 27.2099 21.0619 27.2098 21.0626C27.1986 22.0133 27.0246 22.9551 26.6953 23.847C26.4458 24.494 26.0636 25.0816 25.5732 25.5719C25.0829 26.0623 24.4952 26.4445 23.8482 26.694C22.9562 27.0247 22.0138 27.1992 21.0626 27.21C19.48 27.282 19.006 27.297 14.9993 27.297C10.9925 27.297 10.52 27.282 8.93895 27.21C7.98767 27.1991 7.04536 27.0246 6.15331 26.694C5.50188 26.4532 4.9125 26.0698 4.42822 25.572C3.92947 25.0885 3.54597 24.4989 3.30617 23.847C2.97544 22.955 2.80088 22.0127 2.79014 21.0615C2.71814 19.4805 2.70314 19.0065 2.70314 15.0015C2.70314 10.9965 2.71814 10.521 2.79014 8.9385C2.80212 7.98738 2.97664 7.0453 3.30617 6.153C3.54698 5.50158 3.93034 4.91222 4.42822 4.428C4.91165 3.92915 5.50128 3.54565 6.15331 3.306C7.04534 2.97535 7.98766 2.8008 8.93895 2.79C10.52 2.715 10.9956 2.7 14.9993 2.7C19.003 2.7 19.48 2.7165 21.0626 2.7885C22.0137 2.80051 22.9558 2.97502 23.8482 3.3045C24.4953 3.55392 25.0829 3.93611 25.5733 4.42646C26.0637 4.91681 26.4459 5.50444 26.6953 6.1515C27.026 7.04349 27.2006 7.98576 27.2114 8.937C27.2834 10.5195 27.2984 10.992 27.2984 14.9985C27.2984 19.0041 27.2834 19.4773 27.2114 21.0589C27.2114 21.0596 27.2111 21.0603 27.2106 21.0607Z" fill="black"/>
<path d="M29.91 8.8155C29.8851 7.57128 29.6493 6.34031 29.2125 5.175C28.8354 4.1741 28.2453 3.26715 27.4829 2.517C26.7343 1.7541 25.8281 1.16385 24.8277 0.7875C23.6619 0.350798 22.4303 0.115446 21.1856 0.0915002C19.5865 0.0180002 19.075 0 15.0007 0C10.9265 0 10.415 0.0164999 8.81594 0.0899999C7.57115 0.114716 6.3396 0.350567 5.17376 0.7875C4.1736 1.16433 3.26755 1.75451 2.51863 2.517C1.75394 3.26587 1.16255 4.17313 0.78604 5.175C0.349763 6.34039 0.114411 7.57137 0.0900048 8.8155C0.015001 10.4145 0 10.926 0 15C0 19.074 0.015001 19.5855 0.0900048 21.1845C0.11444 22.4286 0.349791 23.6596 0.78604 24.825C1.1622 25.8267 1.75305 26.7339 2.51713 27.483C3.26685 28.2452 4.17332 28.8354 5.17376 29.2125C6.33972 29.6488 7.57126 29.8841 8.81594 29.9085C10.415 29.982 10.9265 30 14.9993 30C19.072 30 19.585 29.9835 21.1841 29.91C22.4283 29.8851 23.6594 29.6493 24.8247 29.2125C25.8214 28.8272 26.7265 28.2378 27.4821 27.4823C28.2377 26.7267 28.8271 25.8216 29.2125 24.825C29.6497 23.6598 29.8856 22.4288 29.91 21.1845C29.982 19.584 30 19.074 30 15C30 10.926 29.982 10.4145 29.91 8.8155ZM27.2106 21.0607C27.2101 21.0612 27.2099 21.0619 27.2098 21.0626C27.1986 22.0133 27.0246 22.9551 26.6953 23.847C26.4458 24.494 26.0636 25.0816 25.5732 25.5719C25.0829 26.0623 24.4952 26.4445 23.8482 26.694C22.9562 27.0247 22.0138 27.1992 21.0626 27.21C19.48 27.282 19.006 27.297 14.9993 27.297C10.9925 27.297 10.52 27.282 8.93895 27.21C7.98767 27.1991 7.04536 27.0246 6.15331 26.694C5.50188 26.4532 4.9125 26.0698 4.42822 25.572C3.92947 25.0885 3.54597 24.4989 3.30617 23.847C2.97544 22.955 2.80088 22.0127 2.79014 21.0615C2.71814 19.4805 2.70314 19.0065 2.70314 15.0015C2.70314 10.9965 2.71814 10.521 2.79014 8.9385C2.80212 7.98738 2.97664 7.0453 3.30617 6.153C3.54698 5.50158 3.93034 4.91222 4.42822 4.428C4.91165 3.92915 5.50128 3.54565 6.15331 3.306C7.04534 2.97535 7.98766 2.8008 8.93895 2.79C10.52 2.715 10.9956 2.7 14.9993 2.7C19.003 2.7 19.48 2.7165 21.0626 2.7885C22.0137 2.80051 22.9558 2.97502 23.8482 3.3045C24.4953 3.55392 25.0829 3.93611 25.5733 4.42646C26.0637 4.91681 26.4459 5.50444 26.6953 6.1515C27.026 7.04349 27.2006 7.98576 27.2114 8.937C27.2834 10.5195 27.2984 10.992 27.2984 14.9985C27.2984 19.0041 27.2834 19.4773 27.2114 21.0589C27.2114 21.0596 27.2111 21.0603 27.2106 21.0607Z" stroke="black"/>
</svg>
