<svg width="31" height="31" viewBox="0 0 31 31" fill="none" xmlns="http://www.w3.org/2000/svg">
<path d="M29.375 9.33333V21.6667C29.375 23.711 28.5629 25.6717 27.1173 27.1173C25.6717 28.5629 23.711 29.375 21.6667 29.375H9.33333C7.28896 29.375 5.32831 28.5629 3.88272 27.1173C2.43713 25.6717 1.625 23.711 1.625 21.6667V9.33333C1.625 7.28896 2.43713 5.32831 3.88272 3.88272C5.32831 2.43713 7.28896 1.625 9.33333 1.625H21.6667C23.711 1.625 25.6717 2.43713 27.1173 3.88272C28.5629 5.32831 29.375 7.28896 29.375 9.33333Z" stroke="black" stroke-width="2.5" stroke-linecap="round" stroke-linejoin="round"/>
<path d="M10.9495 7.6632C10.9493 8.14022 10.7596 8.59761 10.4221 8.93474C10.0846 9.27188 9.62703 9.46115 9.15001 9.46091C8.67299 9.46067 8.2156 9.27094 7.87846 8.93347C7.54132 8.596 7.35206 8.13842 7.3523 7.6614C7.35253 7.18438 7.54226 6.72699 7.87973 6.38985C8.21721 6.05271 8.67478 5.86345 9.15181 5.86369C9.62883 5.86392 10.0862 6.05365 10.4234 6.39112C10.7605 6.7286 10.9498 7.18617 10.9495 7.6632ZM11.0035 10.7928H7.40625V22.0521H11.0035V10.7928ZM16.6871 10.7928H13.1079V22.0521H16.6511V16.1436C16.6511 12.8522 20.9408 12.5464 20.9408 16.1436V22.0521H24.4931V14.9206C24.4931 9.37188 18.144 9.57872 16.6511 12.3036L16.6871 10.7928Z" fill="black"/>
</svg>
