<?xml version="1.0" encoding="utf-8"?>
<!-- Generator: Adobe Illustrator 25.2.3, SVG Export Plug-In . SVG Version: 6.00 Build 0)  -->
<svg version="1.1" id="Layer_1" xmlns="http://www.w3.org/2000/svg" xmlns:xlink="http://www.w3.org/1999/xlink" x="0px" y="0px"
	 viewBox="0 0 30 30" style="enable-background:new 0 0 30 30;" xml:space="preserve">
<style type="text/css">
	.st0{fill:#FFFFFF;}
	.st1{fill:none;stroke:#000000;stroke-width:2;}
</style>
<g id="Group_1" transform="translate(-223 -333)">
	<g id="Rectangle_4" transform="translate(223 349)">
		<path class="st0" d="M15-0.57L15-0.57c6.44,0,11.66,5.22,11.66,11.66l0,0v1.3l0,0H3.34l0,0v-1.3C3.34,4.65,8.56-0.57,15-0.57z"/>
		<path class="st1" d="M14.92,0.3h0.16C21,0.3,25.8,5.09,25.8,11.01l0,0c0,0.28-0.23,0.51-0.51,0.51H4.71
			c-0.28,0-0.51-0.23-0.51-0.51l0,0C4.2,5.09,9,0.3,14.92,0.3z"/>
	</g>
	<g id="Ellipse_1" transform="translate(229 333)">
		<circle class="st0" cx="8.57" cy="7.66" r="6.05"/>
		<circle class="st1" cx="8.57" cy="7.66" r="5.18"/>
	</g>
</g>
</svg>
