<?xml version="1.0" encoding="utf-8"?>
<!-- Generator: Adobe Illustrator 25.2.3, SVG Export Plug-In . SVG Version: 6.00 Build 0)  -->
<svg version="1.1" id="Layer_1" xmlns="http://www.w3.org/2000/svg" xmlns:xlink="http://www.w3.org/1999/xlink" x="0px" y="0px"
	 viewBox="0 0 30 30" style="enable-background:new 0 0 30 30;" xml:space="preserve">
<style type="text/css">
	.st0{fill:#FFFFFF;}
	.st1{fill:none;stroke:#000000;stroke-width:0.8;}
</style>
<g id="Group_1" transform="translate(-223 -333.738)">
	<g id="Rectangle_4" transform="translate(223 348.738)">
		<path class="st0" d="M15.12,0.43L15.12,0.43c7.18,0,13,5.82,13,13v1l0,0h-26l0,0v-1C2.12,6.25,7.94,0.43,15.12,0.43z"/>
		<path class="st1" d="M15.12,0.83L15.12,0.83c6.96,0,12.6,5.64,12.6,12.6v0.37c0,0.13-0.1,0.23-0.23,0.23H2.75
			c-0.13,0-0.23-0.1-0.23-0.23v-0.37C2.52,6.47,8.16,0.83,15.12,0.83z"/>
	</g>
	<g id="Ellipse_1" transform="translate(229 333.738)">
		<circle class="st0" cx="8.62" cy="6.93" r="6.5"/>
		<circle class="st1" cx="8.62" cy="6.93" r="6.1"/>
	</g>
</g>
</svg>
