<svg width="24" height="30" viewBox="0 0 24 30" fill="none" xmlns="http://www.w3.org/2000/svg">
<path d="M9.86414 19.8426C9.05415 23.9704 8.06945 27.9301 5.13441 30C4.23229 23.7604 6.46534 19.0686 7.50086 14.0919C5.73476 11.2001 7.71369 5.37444 11.4397 6.81135C16.0296 8.57525 7.4691 17.5687 13.2185 18.6907C19.2156 19.8666 21.6678 8.56925 17.945 4.89146C12.5705 -0.412226 2.29466 4.77147 3.55888 12.367C3.867 14.2269 5.83958 14.7879 4.34665 17.3497C0.906546 16.6088 -0.119448 13.9689 0.010787 10.4501C0.223609 4.69048 5.33135 0.661711 10.4581 0.100744C16.9381 -0.604215 23.0178 2.41661 23.8596 8.34426C24.803 15.0339 20.9341 22.2815 14.0031 21.7595C12.129 21.6185 11.3348 20.7095 9.86414 19.8396V19.8426Z" fill="black"/>
</svg>
