<svg width="30" height="30" viewBox="0 0 30 30" fill="none" xmlns="http://www.w3.org/2000/svg">
<path d="M29.9212 4.5196C29.8371 4.29214 29.6958 4.09806 29.515 3.96183C29.3342 3.82561 29.122 3.75332 28.9052 3.7541H24.7314C24.2306 2.75975 23.5353 1.90994 22.6994 1.27046C21.8635 0.630988 20.9095 0.219017 19.9113 0.0664564C18.913 -0.0861046 17.8973 0.0248374 16.9428 0.390691C15.9883 0.756545 15.1206 1.36749 14.4069 2.17622C13.782 2.8695 13.2852 3.6979 12.9457 4.61275C12.6062 5.5276 12.4308 6.51044 12.4298 7.50351V8.45649C6.84193 6.8005 2.27002 1.6763 2.22883 1.61381C2.08522 1.45303 1.90551 1.3403 1.70936 1.28795C1.51322 1.2356 1.30821 1.24564 1.11674 1.31698C0.925888 1.38609 0.75498 1.51257 0.622067 1.68306C0.489154 1.85355 0.399171 2.06171 0.361622 2.28558C-0.832841 9.81565 1.15793 14.8617 3.03887 17.7675C3.98229 19.2369 5.12731 20.524 6.43005 21.5794C4.32944 24.2821 1.08928 25.6882 1.06183 25.7038C0.906881 25.7692 0.7669 25.8735 0.652313 26.009C0.537726 26.1445 0.451486 26.3077 0.40002 26.4864C0.348553 26.6651 0.333187 26.8547 0.355064 27.0411C0.376942 27.2274 0.4355 27.4058 0.526376 27.5629C0.636212 27.7503 1.0481 28.3596 2.05035 28.9377C3.29973 29.6407 4.94726 30 6.93804 30C16.6173 30 24.7177 21.5169 25.5415 10.5968L29.6878 5.89439C29.8368 5.71368 29.9378 5.48867 29.9791 5.24538C30.0204 5.00208 30.0003 4.75045 29.9212 4.5196ZM23.7017 9.1595C23.5104 9.37544 23.3976 9.66552 23.3859 9.97188C22.823 19.7985 15.6013 27.5004 6.93804 27.5004C5.48271 27.5004 4.46673 27.2817 3.7528 27.0161C5.33169 26.0475 7.5284 24.3603 8.95627 21.9388C9.03915 21.7922 9.09418 21.6275 9.11783 21.4554C9.14147 21.2832 9.13321 21.1073 9.09356 20.9389C9.0536 20.7689 8.98289 20.6102 8.88596 20.473C8.78904 20.3358 8.66802 20.2231 8.53065 20.1422C8.51692 20.1265 6.48496 18.9236 4.74132 16.1897C2.76428 13.0964 1.92678 9.33135 2.25629 4.98828C4.42554 7.01921 8.57184 10.3312 13.3497 11.2373C13.5075 11.2661 13.6689 11.2559 13.8229 11.2074C13.9768 11.1589 14.1198 11.0732 14.2421 10.9561C14.3616 10.8371 14.4577 10.6907 14.5239 10.5264C14.5902 10.3622 14.6252 10.1838 14.6265 10.0031V7.50351C14.6286 6.35681 14.977 5.24577 15.6134 4.35664C16.2498 3.46752 17.1355 2.85437 18.1219 2.61998C19.1084 2.38559 20.1357 2.54422 21.0316 3.06927C21.9275 3.59432 22.6376 4.45387 23.0427 5.50382C23.1303 5.72716 23.2728 5.91684 23.4531 6.04992C23.6334 6.18301 23.8438 6.25379 24.0587 6.25371H26.2554L23.7017 9.1595Z" fill="black"/>
</svg>
